<svg width="106" height="106" viewBox="0 0 106 106" fill="none" xmlns="http://www.w3.org/2000/svg">
<path fill-rule="evenodd" clip-rule="evenodd" d="M53 106C82.2711 106 106 82.2711 106 53C106 23.7289 82.2711 0 53 0C23.7289 0 0 23.7289 0 53C0 82.2711 23.7289 106 53 106ZM73.4679 54.359C74.4869 51.395 75.1208 48.3678 74.9793 45.2115C74.9706 45.0581 74.9639 44.9047 74.9573 44.7514C74.9438 44.4439 74.9305 44.1368 74.9007 43.8309C74.8591 43.4048 74.79 42.9787 74.7213 42.5547L74.7069 42.4662C74.0442 38.3351 72.3101 34.6992 69.5648 31.5772C66.1097 27.6489 61.8032 25.2224 56.6454 24.324C53.5858 23.7892 50.555 23.9183 47.5714 24.6981C42.7305 25.9575 38.7121 28.5579 35.6578 32.5494C31.1837 38.3956 29.9839 44.9401 31.8385 52.0458C32.8601 55.9635 34.5393 59.623 36.4803 63.164C40.6061 70.6833 45.6617 77.536 51.2518 84.0067C52.407 85.3451 53.6067 85.3345 54.7698 84.0014C57.9787 80.3208 60.9728 76.4716 63.7495 72.4537C67.6656 66.7919 71.2099 60.9245 73.4679 54.359ZM64.0769 46.1468C64.0507 52.2723 58.94 57.2834 52.9911 57.1702C46.8588 57.1649 41.9184 52.2038 41.942 46.0467C41.9656 39.8368 47.1182 34.9996 53.0252 35.0049C58.9793 35.0101 64.1005 39.9712 64.0769 46.1468Z" fill="black"/>
</svg>
