<svg width="106" height="106" viewBox="0 0 106 106" fill="none" xmlns="http://www.w3.org/2000/svg">
<path fill-rule="evenodd" clip-rule="evenodd" d="M106 53C106 82.2711 82.2711 106 53 106C23.7289 106 0 82.2711 0 53C0 23.7289 23.7289 0 53 0C82.2711 0 106 23.7289 106 53ZM52.9925 31.0028H78.2199C79.2655 31.0028 80.2355 31.2239 81.1241 31.82C81.5951 32.1362 81.5699 32.3377 81.1662 32.6932C79.0978 34.516 77.0393 36.3503 74.9806 38.1847L74.9803 38.1851L74.9799 38.1854L74.9795 38.1858C74.3487 38.7478 73.718 39.3099 73.0869 39.8716C71.9577 40.8772 70.8285 41.8831 69.6991 42.8891L69.6713 42.9139C67.5128 44.8366 65.354 46.7597 63.1939 48.6816C62.314 49.465 61.4334 50.2478 60.5528 51.0308L60.5506 51.0328L60.5483 51.0348L60.548 51.0351C58.2177 53.1069 55.8866 55.1794 53.5644 57.2622C53.1579 57.626 52.8916 57.6456 52.4627 57.2594C47.7755 53.0559 43.0687 48.8692 38.3618 44.6852C34.9697 41.6697 31.5712 38.6573 28.1735 35.6458L28.1678 35.6408L28.1191 35.5976C27.0478 34.648 25.9766 33.6986 24.9058 32.7491C24.3787 32.279 24.3871 32.1782 24.9899 31.7808C25.8337 31.2323 26.7616 31 27.7652 31C34.072 31.0042 40.3773 31.0037 46.6833 31.0031H46.6836H46.6838H46.6841C48.7868 31.003 50.8896 31.0028 52.9925 31.0028ZM46.6815 75.5424H46.6816H46.6817C48.7793 75.5426 50.8768 75.5428 52.9743 75.5428C61.3815 75.5428 69.7916 75.5428 78.1988 75.5456C79.1968 75.5456 80.1444 75.3637 80.9882 74.8068C81.6666 74.359 81.6694 74.3114 81.0611 73.7685C78.4613 71.4513 75.86 69.1373 73.2583 66.8228L73.2484 66.814L70.5429 64.4071L69.1677 63.1842L69.1667 63.1833C66.4124 60.7342 63.6581 58.2852 60.9162 55.8238C60.5433 55.4879 60.3219 55.4711 59.9406 55.8266C59.0446 56.6572 58.1403 57.4784 57.2362 58.2995L57.236 58.2996L57.2358 58.2998C56.0411 59.3848 54.8467 60.4694 53.6723 61.5749C53.1565 62.0591 52.8678 62.0395 52.3688 61.5749C51.3049 60.5846 50.2264 59.6091 49.1478 58.6335L49.1473 58.6331L49.1473 58.633C48.1228 57.7064 47.0983 56.7798 46.0865 55.8406C45.6688 55.4543 45.4361 55.5187 45.0745 55.8685C44.5777 56.3513 44.0567 56.8083 43.536 57.2651L43.536 57.2651L43.5359 57.2652C43.3926 57.3909 43.2493 57.5166 43.1065 57.6429L39.8069 60.5714L39.8032 60.5747L39.7904 60.586C34.813 65.0039 29.8358 69.4217 24.8511 73.83C24.4194 74.2135 24.4838 74.4457 24.91 74.7284C25.793 75.3133 26.7686 75.5456 27.817 75.5456C34.1064 75.5414 40.3941 75.5419 46.6815 75.5424ZM23.1349 71.8065C22.9828 71.5386 22.9949 71.3188 23.0059 71.1159C23.0088 71.0644 23.0115 71.0139 23.0115 70.9641C23.0087 59.2855 23.0087 47.6068 23.0087 35.9254C23.0087 35.8874 23.0081 35.8491 23.0075 35.8106L23.0075 35.8103V35.8102C23.0062 35.7328 23.005 35.655 23.0087 35.5784C23.0107 35.5468 23.0094 35.5135 23.0081 35.4799C23.0039 35.371 22.9997 35.2598 23.1068 35.1978C23.2656 35.1051 23.3754 35.21 23.4789 35.3089L23.479 35.309C23.4943 35.3236 23.5094 35.3381 23.5245 35.3517L26.1148 37.6858C27.2411 38.703 28.3671 39.7203 29.4931 40.7376L29.4938 40.7382C34.0738 44.8761 38.6531 49.0133 43.2433 53.1397C43.6554 53.5091 43.7059 53.6966 43.2573 54.0884C38.1065 58.6048 32.9668 63.134 27.8276 67.6626L27.8271 67.6631C26.6228 68.7243 25.4185 69.7855 24.2142 70.8465C23.9718 71.0592 23.7321 71.2733 23.4771 71.5011L23.4716 71.506C23.3626 71.6033 23.2509 71.7032 23.1349 71.8065ZM82.9664 70.9219C82.9692 65.0896 82.9692 59.2601 82.9692 53.4278C82.9692 51.9642 82.9694 50.5004 82.9696 49.0366C82.9701 44.6447 82.9706 40.252 82.9664 35.8609C82.9664 35.8067 82.9748 35.7467 82.9833 35.6854C83.0086 35.503 83.0355 35.3094 82.8487 35.2256C82.6646 35.1419 82.5446 35.2877 82.4301 35.427C82.3876 35.4785 82.346 35.5292 82.302 35.567C81.1835 36.5465 80.0734 37.5373 78.9689 38.5364C77.3565 39.9937 75.7451 41.4523 74.1337 42.911C70.3855 46.3039 66.637 49.697 62.8748 53.0752C62.3506 53.5453 62.4151 53.758 62.9001 54.1806C64.9379 55.9539 66.9618 57.7441 68.9856 59.5342C69.6958 60.1623 70.4059 60.7905 71.1167 61.4178C72.1333 62.3155 73.1497 63.2135 74.1662 64.1116C76.8607 66.4923 79.5553 68.8731 82.2544 71.2466C82.2938 71.2814 82.3331 71.3258 82.3737 71.3716C82.5088 71.5243 82.6576 71.6924 82.8711 71.574C83.0291 71.4848 83.0052 71.2925 82.9823 71.1078C82.9743 71.0434 82.9664 70.9798 82.9664 70.9219Z" fill="black"/>
</svg>
