<svg width="103" height="103" viewBox="0 0 103 103" fill="none" xmlns="http://www.w3.org/2000/svg">
<circle cx="51.5" cy="51.5" r="46.5" fill="#4094B5"/>
<path d="M29.1578 74.3743C28.5172 74.4731 28.4948 74.0832 28.5815 73.6576C29.1998 70.6703 30.0585 67.7517 31.1859 64.9126C31.7034 63.6057 32.2992 62.3317 32.8755 61.0495C34.3133 57.8398 36.2155 54.9046 38.2128 52.0189C38.7554 51.2364 38.8673 51.1925 39.6478 51.7114C40.2772 52.1315 40.8954 52.5681 41.5136 53.0019C41.8913 53.2655 42.0703 53.5208 41.701 53.9848C40.3527 55.6817 39.1862 57.5075 38.1316 59.3883C37.161 61.1181 36.2658 62.8946 35.5105 64.7287C34.9595 66.0658 34.4811 67.4332 33.958 68.7841C33.8909 68.957 33.765 69.1218 33.9328 69.281C34.0704 69.4186 34.2322 69.2536 34.3776 69.2096C36.4952 68.5726 38.5512 67.7819 40.5765 66.8923C43.0969 65.7858 45.4327 64.3855 47.7349 62.9165C48.3699 62.5102 48.9657 62.0352 49.5475 61.5547C49.8133 61.3323 50.0091 61.2526 50.2329 61.5519C50.8735 62.4058 51.5057 63.268 52.1519 64.1191C52.3477 64.3772 52.233 64.5228 52.0176 64.6793C48.9433 66.9088 45.7236 68.9049 42.2353 70.4424C39.4184 71.6835 36.54 72.7571 33.5356 73.5066C32.081 73.8608 30.6096 74.0832 29.1578 74.3743Z" fill="white"/>
<path d="M67.4076 41.2836C67.4552 44.1364 65.1977 46.267 62.3557 46.278C59.6646 46.289 57.3317 44.0046 57.3596 41.3468C57.3876 38.6148 59.5499 36.3661 62.6242 36.4018C65.0439 36.4265 67.5587 38.6697 67.4076 41.2836ZM65.4048 41.3742C65.4159 39.8778 63.9725 38.4226 62.4592 38.3924C60.9682 38.3622 59.4604 39.6939 59.3961 41.322C59.3401 42.6757 61.0073 44.3341 62.3976 44.2874C64.0201 44.2325 65.3572 42.8706 65.4048 41.3742Z" fill="white"/>
<path fill-rule="evenodd" clip-rule="evenodd" d="M75.9857 30.3094C75.9997 32.624 75.5829 34.8782 75.1102 37.1407C74.4892 40.1143 73.3926 42.9011 72.0135 45.5892C70.9981 47.5715 69.7757 49.4359 68.3546 51.1766C67.4707 52.2612 66.5867 53.3402 65.5349 54.2683C65.1321 54.6252 65.1097 54.9629 65.3111 55.394C65.9881 56.8355 66.665 58.2769 67.3364 59.7212C67.66 60.4206 67.9807 61.1209 68.3014 61.8211L68.3021 61.8228L68.303 61.8246L68.3038 61.8265L68.3047 61.8283C68.5318 62.3242 68.7588 62.82 68.9868 63.3153C69.177 63.7271 68.9672 63.9962 68.6819 64.2735C66.834 66.0796 64.9902 67.8911 63.1467 69.7023L63.1461 69.7028L63.1456 69.7034L63.145 69.7039L63.1359 69.7129C62.3486 70.4864 61.5613 71.2599 60.7738 72.0328C60.4996 72.302 60.2246 72.5702 59.9498 72.8384C59.2827 73.4892 58.6163 74.1393 57.9625 74.8005C57.6017 75.1656 57.3359 75.1437 56.9723 74.7922L56.9354 74.7567C56.4269 74.2655 56.17 74.0174 56.1677 73.7669C56.1653 73.5113 56.4283 73.2532 56.9597 72.7316L56.9639 72.7275C57.1873 72.5091 57.409 72.2893 57.6306 72.0697L57.6307 72.0696C58.114 71.5906 58.5968 71.1121 59.0955 70.649C59.364 70.3991 59.3864 70.2069 59.2129 69.8912C58.5607 68.7014 57.9163 67.5077 57.2716 66.3136L57.2713 66.3131L57.271 66.3126L57.2707 66.3121L57.2703 66.3113C56.8205 65.4781 56.3705 64.6447 55.9177 63.8122C55.831 63.6557 55.7023 63.5157 55.5736 63.3894C54.9053 62.7317 54.2353 62.0753 53.5654 61.4189C52.0425 59.9267 50.5194 58.4343 49.0139 56.9261C48.6083 56.5197 48.3957 56.5856 48.032 56.9508C47.3663 57.6234 46.6901 58.2851 46.0139 58.9467L46.0137 58.9469C45.3375 59.6086 44.6612 60.2703 43.9955 60.943C43.5731 61.3686 43.2821 61.3823 42.8541 60.9458L42.8014 60.8919C41.8887 59.9603 41.8873 59.9589 42.829 59.0293C43.1092 58.7536 43.3892 58.4774 43.6692 58.2013C44.6217 57.2618 45.5747 56.3219 46.541 55.3967C46.8655 55.0865 46.955 54.9025 46.5774 54.5401C45.3413 53.3479 44.117 52.145 42.8925 50.9417L42.8923 50.9416C41.8945 49.9611 40.8965 48.9805 39.8918 48.0054C39.4902 47.615 38.982 47.3776 38.4748 47.1407L38.4748 47.1407L38.4747 47.1407L38.4747 47.1407C38.2471 47.0344 38.0197 46.9282 37.8022 46.8082C37.1822 46.4648 36.5461 46.1506 35.9097 45.8364L35.9097 45.8364C35.0759 45.4247 34.2419 45.0129 33.4439 44.5348C33.0411 44.2932 32.7754 44.3179 32.4369 44.6776C31.9398 45.2015 31.4218 45.7058 30.9036 46.2103L30.9035 46.2103C30.512 46.5916 30.1203 46.9729 29.7375 47.3629C29.4577 47.6484 29.2983 47.6429 29.0185 47.3574C28.8311 47.1644 28.6689 47.0064 28.5326 46.8735L28.5325 46.8735L28.5324 46.8734C28.1816 46.5316 28.0015 46.3561 28 46.1791C27.9984 45.9923 28.1957 45.8038 28.6011 45.4164C28.7138 45.3086 28.8426 45.1855 28.9878 45.0428C29.736 44.3077 30.4847 43.5729 31.2335 42.8381C33.7793 40.3396 36.3255 37.8406 38.8568 35.3285C39.3323 34.8563 39.7155 34.73 40.3701 35.032C41.8077 35.6982 43.2582 36.339 44.7089 36.98L44.709 36.98C45.7875 37.4565 46.8661 37.9331 47.9397 38.4202C48.4964 38.6728 48.86 38.6398 49.3132 38.1813C51.6238 35.8283 54.3036 33.9557 57.2045 32.3577C59.3724 31.1633 61.655 30.249 64.0048 29.5104C65.7727 28.9558 67.6049 28.6236 69.4456 28.3271C71.1408 28.0565 72.834 28.0342 74.5323 28.0118L74.5324 28.0118C74.7985 28.0083 75.0648 28.0048 75.3312 28.0003C75.8571 27.9921 76.0361 28.1431 75.9941 28.6593C75.9651 29.0396 75.9722 29.4212 75.9794 29.8022C75.9826 29.9715 75.9857 30.1406 75.9857 30.3094ZM69.8226 32.1703L69.8221 32.1704L69.8221 32.1704C69.5726 32.2133 69.5272 32.2211 69.1267 32.2863C66.6119 32.6899 64.2062 33.434 61.8788 34.417C58.3234 35.9189 55.14 38.0166 52.3259 40.603C50.8147 41.9918 49.3601 43.4409 47.9054 44.89L47.9053 44.8901L47.9052 44.8901L47.9052 44.8901L47.9052 44.8901L47.9052 44.8901C47.1197 45.6727 46.3341 46.4552 45.5396 47.2283C45.4566 47.3091 45.3941 47.3805 45.3543 47.4483C45.2481 47.6249 45.293 47.7761 45.5264 47.9952C46.5671 48.9754 47.5937 49.9749 48.5839 51.0045C49.0091 51.4466 49.2637 51.4987 49.7336 51.0237C50.8664 49.8807 52.0163 48.7545 53.1664 47.628C54.0442 46.7683 54.9221 45.9084 55.7927 45.0409C56.215 44.6208 56.5283 44.5878 56.9424 45.0299C57.2891 45.3996 57.6546 45.7509 58.0204 46.1027L58.0204 46.1027C58.2035 46.2787 58.3866 46.4548 58.5676 46.6334C59.019 47.0764 59.1393 47.2137 58.9241 47.4981C58.8461 47.6007 58.7243 47.7224 58.5584 47.8845C58.1274 48.3075 57.697 48.7311 57.2666 49.1548L57.0068 49.4103L57.0063 49.4108C55.7763 50.6203 54.5466 51.8295 53.3057 53.0276C53.0431 53.2807 52.7799 53.5332 52.5161 53.785C52.3458 53.948 52.2435 54.0843 52.2054 54.2123C52.1403 54.4261 52.253 54.6175 52.5282 54.8704C53.5436 55.8094 54.5394 56.7759 55.4905 57.7781C55.8962 58.2037 56.1255 58.1899 56.52 57.7781C57.4719 56.7879 58.46 55.8322 59.4482 54.8763L59.4483 54.8762L59.4483 54.8761L59.4484 54.876C60.8442 53.5259 62.2402 52.1755 63.5357 50.7272L63.5644 50.6951C64.4555 49.701 65.3427 48.7112 66.1204 47.6273C67.542 45.6465 68.7273 43.5506 69.6706 41.3338C69.9978 40.5657 70.2959 39.7831 70.5645 38.9858C70.6423 38.7546 70.7159 38.5225 70.786 38.2897C71.206 36.8979 71.495 35.4792 71.7514 34.0536C71.8228 33.6589 71.8917 33.2637 71.9604 32.8684C72.0946 32.0831 71.966 31.9459 71.124 31.9486C70.3598 32.078 70.0244 32.1356 69.8226 32.1703ZM39.8882 37.3881C40.1127 37.2183 40.3027 37.2628 40.5739 37.3827C41.833 37.9387 43.0974 38.4864 44.3619 39.0341C45.1454 39.3735 45.9289 39.7128 46.7112 40.0542C46.7357 40.0655 46.763 40.0751 46.7912 40.0851C46.8193 40.0951 46.8484 40.1054 46.8765 40.1179C46.9664 40.1565 47.0465 40.2174 47.0585 40.3586L47.0547 40.3625C47.0294 40.389 47.0035 40.4165 46.9772 40.4444L46.9769 40.4447L46.9769 40.4448C46.9146 40.511 46.8497 40.58 46.782 40.6464L46.7788 40.6497C46.235 41.1842 45.6905 41.7183 45.1458 42.2524L45.1435 42.2547C43.9434 43.4316 42.743 44.6087 41.5506 45.7923C41.2625 46.0806 41.0219 46.1438 40.6415 45.9461C38.8885 45.0421 37.1263 44.1563 35.3632 43.27L34.837 43.0055C34.6028 42.8876 34.5089 42.7837 34.5812 42.6305C34.6096 42.5691 34.6652 42.4997 34.7498 42.4183C36.4394 40.7818 38.1206 39.1344 39.7878 37.476L39.7992 37.4648C39.8296 37.4354 39.8591 37.4099 39.8882 37.3881ZM66.4837 62.8701C66.5254 62.9569 66.5482 63.0329 66.5537 63.1026C66.5663 63.2537 66.4974 63.3746 66.3598 63.5106L66.3495 63.5208C64.6655 65.1627 62.9815 66.8074 61.3171 68.4713C61.2747 68.5135 61.2354 68.5486 61.1986 68.5768C60.9497 68.7684 60.8156 68.6534 60.6815 68.3591C60.125 67.1492 59.4816 65.9831 58.838 64.8168L58.8379 64.8166L58.8378 64.8164L58.8377 64.8162C58.4883 64.1829 58.1387 63.5495 57.8031 62.9089C57.5429 62.4119 57.5485 62.0797 57.9905 61.6624L58.0292 61.6257C59.1915 60.5214 60.3346 59.397 61.4778 58.2723L61.4782 58.2719C61.8394 57.9166 62.2006 57.5613 62.5624 57.2066C62.7232 57.0488 62.8841 56.8913 63.0453 56.7339C63.0734 56.7062 63.1001 56.6761 63.127 56.6456C63.1761 56.5902 63.2262 56.5334 63.2888 56.488C63.3457 56.4466 63.4129 56.4145 63.499 56.4013L63.8946 57.2512C64.2998 58.1215 64.6982 58.9773 65.0935 59.8361C65.2591 60.1965 65.4226 60.5579 65.5861 60.9194L65.5862 60.9196L65.5863 60.9198C65.8811 61.5717 66.1761 62.2237 66.4837 62.8701Z" fill="white"/>
</svg>
